<svg width="20" height="20" viewBox="0 0 20 20" fill="none" xmlns="http://www.w3.org/2000/svg">
<path d="M10 0C4.47301 0 0 4.47254 0 10C0 15.527 4.47254 20 10 20C15.527 20 20 15.5275 20 10C20 4.47301 15.5275 0 10 0ZM15.2935 7.26816L8.88707 13.6746C8.62684 13.9348 8.20457 13.9349 7.94426 13.6746L4.70648 10.4368C4.44613 10.1765 4.44613 9.75437 4.70648 9.49402C4.9668 9.23367 5.38895 9.23367 5.6493 9.49402L8.4157 12.2604L14.3508 6.32531C14.6111 6.06496 15.0332 6.06496 15.2936 6.32531C15.5539 6.58574 15.5539 7.00781 15.2935 7.26816Z" fill="#47EFF8"/>
</svg>
