<svg width="42" height="41" viewBox="0 0 42 41" fill="none" xmlns="http://www.w3.org/2000/svg">
<path d="M36.197 4.48291H6.73786C6.0294 4.48291 5.45703 5.05528 5.45703 5.76374V35.2229C5.45703 35.9313 6.0294 36.5037 6.73786 36.5037H36.197C36.9054 36.5037 37.4778 35.9313 37.4778 35.2229V5.76374C37.4778 5.05528 36.9054 4.48291 36.197 4.48291ZM14.9552 31.7686H10.2041V16.4867H14.9552V31.7686ZM12.5817 14.3973C12.037 14.3973 11.5046 14.2358 11.0517 13.9332C10.5989 13.6307 10.2459 13.2006 10.0375 12.6974C9.82906 12.1942 9.77453 11.6405 9.88078 11.1063C9.98704 10.5721 10.2493 10.0815 10.6344 9.69634C11.0196 9.31121 11.5102 9.04894 12.0444 8.94268C12.5786 8.83643 13.1323 8.89096 13.6355 9.09939C14.1387 9.30782 14.5688 9.66078 14.8713 10.1136C15.1739 10.5665 15.3354 11.0989 15.3354 11.6436C15.3314 13.1645 14.0986 14.3973 12.5817 14.3973ZM32.7427 31.7686H27.9957V24.3358C27.9957 22.5626 27.9636 20.2852 25.5261 20.2852C23.0565 20.2852 22.6762 22.2144 22.6762 24.2077V31.7686H17.9331V16.4867H22.4881V18.5761H22.5521C23.1845 17.3753 24.7335 16.1065 27.047 16.1065C31.8582 16.1065 32.7427 19.2725 32.7427 23.3872V31.7686Z" fill="white"/>
</svg>
