<svg width="46" height="46" viewBox="0 0 46 46" fill="none" xmlns="http://www.w3.org/2000/svg">
<path d="M23.0007 26.8333C27.2288 26.8333 30.6673 23.3948 30.6673 19.1667C30.6673 14.9385 27.2288 11.5 23.0007 11.5C18.7725 11.5 15.334 14.9385 15.334 19.1667C15.334 23.3948 18.7725 26.8333 23.0007 26.8333ZM23.0007 15.3333C25.1147 15.3333 26.834 17.0526 26.834 19.1667C26.834 21.2807 25.1147 23 23.0007 23C20.8866 23 19.1673 21.2807 19.1673 19.1667C19.1673 17.0526 20.8866 15.3333 23.0007 15.3333Z" fill="white"/>
<path d="M21.8879 41.8102C22.2122 42.0419 22.6009 42.1664 22.9995 42.1664C23.3981 42.1664 23.7868 42.0419 24.1112 41.8102C24.6939 41.3981 38.3884 31.51 38.3329 19.1667C38.3329 10.7123 31.4539 3.83337 22.9995 3.83337C14.5451 3.83337 7.66618 10.7123 7.66618 19.1571C7.6106 31.51 21.3052 41.3981 21.8879 41.8102ZM22.9995 7.66671C29.3418 7.66671 34.4995 12.8245 34.4995 19.1763C34.5398 27.6825 26.0892 35.3204 22.9995 37.8255C19.9118 35.3185 11.4593 27.6786 11.4995 19.1667C11.4995 12.8245 16.6573 7.66671 22.9995 7.66671Z" fill="white"/>
</svg>
