<svg width="41" height="41" viewBox="0 0 41 41" fill="none" xmlns="http://www.w3.org/2000/svg">
<path d="M37.1455 10.1787C35.9207 10.707 34.5878 11.0873 33.2149 11.2354C34.6403 10.3886 35.7077 9.05077 36.2168 7.47295C34.8793 8.26862 33.414 8.82656 31.886 9.12202C31.2474 8.43928 30.475 7.89538 29.617 7.52421C28.7589 7.15304 27.8337 6.96255 26.8988 6.96462C23.1163 6.96462 20.0744 10.0306 20.0744 13.793C20.0744 14.3214 20.1384 14.8497 20.2425 15.3581C14.5788 15.0619 9.52753 12.3561 6.16936 8.21343C5.55746 9.25857 5.2368 10.4486 5.24075 11.6597C5.24075 14.0292 6.44553 16.1186 8.28273 17.3474C7.20004 17.3047 6.14271 17.0071 5.19672 16.4788V16.5628C5.19672 19.881 7.54225 22.6308 10.6683 23.2632C10.0813 23.4157 9.47753 23.4936 8.87111 23.4953C8.42682 23.4953 8.00655 23.4513 7.58227 23.3913C8.44683 26.097 10.9645 28.0623 13.9624 28.1263C11.6169 29.9635 8.67898 31.0442 5.48891 31.0442C4.91654 31.0442 4.3882 31.0242 3.83984 30.9602C6.86581 32.9014 10.4561 34.0222 14.3226 34.0222C26.8748 34.0222 33.7432 23.6234 33.7432 14.5976C33.7432 14.3014 33.7432 14.0052 33.7232 13.709C35.0521 12.7364 36.2168 11.5316 37.1455 10.1787Z" fill="white"/>
</svg>
